<?xml version="1.0" encoding="UTF-8"?><svg xmlns="http://www.w3.org/2000/svg" xmlns:xlink="http://www.w3.org/1999/xlink" stroke-dasharray="none" shape-rendering="auto" font-family="'Dialog'" width="1205" text-rendering="auto" fill-opacity="1" contentScriptType="text/ecmascript" color-interpolation="auto" color-rendering="auto" preserveAspectRatio="xMidYMid meet" font-size="12" viewBox="0 0 1205 519" fill="black" stroke="black" image-rendering="auto" stroke-miterlimit="10" zoomAndPan="magnify" version="1.0" stroke-linecap="square" stroke-linejoin="miter" contentStyleType="text/css" font-style="normal" height="519" stroke-width="1" stroke-dashoffset="0" font-weight="normal" stroke-opacity="1">
<!--Generated by the Batik Graphics2D SVG Generator-->
<defs id="genericDefs"/>
<g>
<defs id="defs1">
<clipPath clipPathUnits="userSpaceOnUse" id="clipPath1">
<path d="M664 63 L751 63 L751 112 L664 112 L664 63 Z"/>
</clipPath>
<clipPath clipPathUnits="userSpaceOnUse" id="clipPath2">
<path d="M672 79 L743 79 L743 96 L672 96 L672 79 Z"/>
</clipPath>
<clipPath clipPathUnits="userSpaceOnUse" id="clipPath3">
<path d="M414 73 L512 73 L512 119 L414 119 L414 73 Z"/>
</clipPath>
<clipPath clipPathUnits="userSpaceOnUse" id="clipPath4">
<path d="M442 87 L484 87 L484 104 L442 104 L442 87 Z"/>
</clipPath>
<clipPath clipPathUnits="userSpaceOnUse" id="clipPath5">
<path d="M444 268 L537 268 L537 321 L444 321 L444 268 Z"/>
</clipPath>
<clipPath clipPathUnits="userSpaceOnUse" id="clipPath6">
<path d="M462 286 L518 286 L518 303 L462 303 L462 286 Z"/>
</clipPath>
<clipPath clipPathUnits="userSpaceOnUse" id="clipPath7">
<path d="M59 428 L147 428 L147 471 L59 471 L59 428 Z"/>
</clipPath>
<clipPath clipPathUnits="userSpaceOnUse" id="clipPath8">
<path d="M70 441 L135 441 L135 458 L70 458 L70 441 Z"/>
</clipPath>
<clipPath clipPathUnits="userSpaceOnUse" id="clipPath9">
<path d="M84 268 L237 268 L237 326 L84 326 L84 268 Z"/>
</clipPath>
<clipPath clipPathUnits="userSpaceOnUse" id="clipPath10">
<path d="M92 288 L229 288 L229 305 L92 305 L92 288 Z"/>
</clipPath>
<clipPath clipPathUnits="userSpaceOnUse" id="clipPath11">
<path d="M969 68 L1061 68 L1061 110 L969 110 L969 68 Z"/>
</clipPath>
<clipPath clipPathUnits="userSpaceOnUse" id="clipPath12">
<path d="M993 80 L1036 80 L1036 97 L993 97 L993 80 Z"/>
</clipPath>
<clipPath clipPathUnits="userSpaceOnUse" id="clipPath13">
<path d="M539 73 L631 73 L631 111 L539 111 L539 73 Z"/>
</clipPath>
<clipPath clipPathUnits="userSpaceOnUse" id="clipPath14">
<path d="M561 83 L609 83 L609 100 L561 100 L561 83 Z"/>
</clipPath>
<clipPath clipPathUnits="userSpaceOnUse" id="clipPath15">
<path d="M254 348 L356 348 L356 390 L254 390 L254 348 Z"/>
</clipPath>
<clipPath clipPathUnits="userSpaceOnUse" id="clipPath16">
<path d="M277 360 L332 360 L332 377 L277 377 L277 360 Z"/>
</clipPath>
<clipPath clipPathUnits="userSpaceOnUse" id="clipPath17">
<path d="M414 173 L516 173 L516 215 L414 215 L414 173 Z"/>
</clipPath>
<clipPath clipPathUnits="userSpaceOnUse" id="clipPath18">
<path d="M439 185 L491 185 L491 202 L439 202 L439 185 Z"/>
</clipPath>
<clipPath clipPathUnits="userSpaceOnUse" id="clipPath19">
<path d="M804 68 L906 68 L906 110 L804 110 L804 68 Z"/>
</clipPath>
<clipPath clipPathUnits="userSpaceOnUse" id="clipPath20">
<path d="M830 80 L879 80 L879 97 L830 97 L830 80 Z"/>
</clipPath>
<clipPath clipPathUnits="userSpaceOnUse" id="clipPath21">
<path d="M294 278 L396 278 L396 320 L294 320 L294 278 Z"/>
</clipPath>
<clipPath clipPathUnits="userSpaceOnUse" id="clipPath22">
<path d="M310 290 L379 290 L379 307 L310 307 L310 290 Z"/>
</clipPath>
<clipPath clipPathUnits="userSpaceOnUse" id="clipPath23">
<path d="M454 403 L556 403 L556 450 L454 450 L454 403 Z"/>
</clipPath>
<clipPath clipPathUnits="userSpaceOnUse" id="clipPath24">
<path d="M474 418 L535 418 L535 435 L474 435 L474 418 Z"/>
</clipPath>
<clipPath clipPathUnits="userSpaceOnUse" id="clipPath25">
<path d="M569 403 L671 403 L671 445 L569 445 L569 403 Z"/>
</clipPath>
<clipPath clipPathUnits="userSpaceOnUse" id="clipPath26">
<path d="M594 415 L645 415 L645 432 L594 432 L594 415 Z"/>
</clipPath>
<clipPath clipPathUnits="userSpaceOnUse" id="clipPath27">
<path d="M339 403 L441 403 L441 450 L339 450 L339 403 Z"/>
</clipPath>
<clipPath clipPathUnits="userSpaceOnUse" id="clipPath28">
<path d="M361 418 L418 418 L418 435 L361 435 L361 418 Z"/>
</clipPath>
<clipPath clipPathUnits="userSpaceOnUse" id="clipPath29">
<path d="M479 333 L511 333 L511 365 L479 365 L479 333 Z"/>
</clipPath>
<clipPath clipPathUnits="userSpaceOnUse" id="clipPath30">
<path d="M490 340 L500 340 L500 357 L490 357 L490 340 Z"/>
</clipPath>
<clipPath clipPathUnits="userSpaceOnUse" id="clipPath31">
<path d="M1064 28 L1156 28 L1156 55 L1064 55 L1064 28 Z"/>
</clipPath>
<clipPath clipPathUnits="userSpaceOnUse" id="clipPath32">
<path d="M1082 33 L1138 33 L1138 50 L1082 50 L1082 33 Z"/>
</clipPath>
<clipPath clipPathUnits="userSpaceOnUse" id="clipPath33">
<path d="M1104 73 L1196 73 L1196 100 L1104 100 L1104 73 Z"/>
</clipPath>
<clipPath clipPathUnits="userSpaceOnUse" id="clipPath34">
<path d="M1119 78 L1181 78 L1181 95 L1119 95 L1119 78 Z"/>
</clipPath>
<clipPath clipPathUnits="userSpaceOnUse" id="clipPath35">
<path d="M1079 123 L1171 123 L1171 150 L1079 150 L1079 123 Z"/>
</clipPath>
<clipPath clipPathUnits="userSpaceOnUse" id="clipPath36">
<path d="M1097 128 L1153 128 L1153 145 L1097 145 L1097 128 Z"/>
</clipPath>
<clipPath clipPathUnits="userSpaceOnUse" id="clipPath37">
<path d="M969 128 L1061 128 L1061 155 L969 155 L969 128 Z"/>
</clipPath>
<clipPath clipPathUnits="userSpaceOnUse" id="clipPath38">
<path d="M993 133 L1037 133 L1037 150 L993 150 L993 133 Z"/>
</clipPath>
<clipPath clipPathUnits="userSpaceOnUse" id="clipPath39">
<path d="M949 28 L1041 28 L1041 55 L949 55 L949 28 Z"/>
</clipPath>
<clipPath clipPathUnits="userSpaceOnUse" id="clipPath40">
<path d="M966 33 L1024 33 L1024 50 L966 50 L966 33 Z"/>
</clipPath>
<clipPath clipPathUnits="userSpaceOnUse" id="clipPath41">
<path d="M559 123 L651 123 L651 150 L559 150 L559 123 Z"/>
</clipPath>
<clipPath clipPathUnits="userSpaceOnUse" id="clipPath42">
<path d="M591 128 L618 128 L618 145 L591 145 L591 128 Z"/>
</clipPath>
<clipPath clipPathUnits="userSpaceOnUse" id="clipPath43">
<path d="M769 123 L861 123 L861 150 L769 150 L769 123 Z"/>
</clipPath>
<clipPath clipPathUnits="userSpaceOnUse" id="clipPath44">
<path d="M776 128 L854 128 L854 145 L776 145 L776 128 Z"/>
</clipPath>
<clipPath clipPathUnits="userSpaceOnUse" id="clipPath45">
<path d="M659 9 L751 9 L751 36 L659 36 L659 9 Z"/>
</clipPath>
<clipPath clipPathUnits="userSpaceOnUse" id="clipPath46">
<path d="M667 14 L743 14 L743 31 L667 31 L667 14 Z"/>
</clipPath>
<clipPath clipPathUnits="userSpaceOnUse" id="clipPath47">
<path d="M764 13 L856 13 L856 40 L764 40 L764 13 Z"/>
</clipPath>
<clipPath clipPathUnits="userSpaceOnUse" id="clipPath48">
<path d="M769 18 L851 18 L851 35 L769 35 L769 18 Z"/>
</clipPath>
<clipPath clipPathUnits="userSpaceOnUse" id="clipPath49">
<path d="M769 18 L848 18 L848 35 L769 35 L769 18 Z"/>
</clipPath>
<clipPath clipPathUnits="userSpaceOnUse" id="clipPath50">
<path d="M549 13 L641 13 L641 40 L549 40 L549 13 Z"/>
</clipPath>
<clipPath clipPathUnits="userSpaceOnUse" id="clipPath51">
<path d="M578 18 L611 18 L611 35 L578 35 L578 18 Z"/>
</clipPath>
<clipPath clipPathUnits="userSpaceOnUse" id="clipPath52">
<path d="M277 70 L369 70 L369 97 L277 97 L277 70 Z"/>
</clipPath>
<clipPath clipPathUnits="userSpaceOnUse" id="clipPath53">
<path d="M306 75 L339 75 L339 92 L306 92 L306 75 Z"/>
</clipPath>
<clipPath clipPathUnits="userSpaceOnUse" id="clipPath54">
<path d="M404 18 L496 18 L496 45 L404 45 L404 18 Z"/>
</clipPath>
<clipPath clipPathUnits="userSpaceOnUse" id="clipPath55">
<path d="M421 23 L479 23 L479 40 L421 40 L421 23 Z"/>
</clipPath>
<clipPath clipPathUnits="userSpaceOnUse" id="clipPath56">
<path d="M284 108 L376 108 L376 135 L284 135 L284 108 Z"/>
</clipPath>
<clipPath clipPathUnits="userSpaceOnUse" id="clipPath57">
<path d="M299 113 L361 113 L361 130 L299 130 L299 113 Z"/>
</clipPath>
<clipPath clipPathUnits="userSpaceOnUse" id="clipPath58">
<path d="M24 368 L116 368 L116 395 L24 395 L24 368 Z"/>
</clipPath>
<clipPath clipPathUnits="userSpaceOnUse" id="clipPath59">
<path d="M53 373 L86 373 L86 390 L53 390 L53 373 Z"/>
</clipPath>
<clipPath clipPathUnits="userSpaceOnUse" id="clipPath60">
<path d="M179 438 L271 438 L271 465 L179 465 L179 438 Z"/>
</clipPath>
<clipPath clipPathUnits="userSpaceOnUse" id="clipPath61">
<path d="M213 443 L237 443 L237 460 L213 460 L213 443 Z"/>
</clipPath>
<clipPath clipPathUnits="userSpaceOnUse" id="clipPath62">
<path d="M124 478 L216 478 L216 505 L124 505 L124 478 Z"/>
</clipPath>
<clipPath clipPathUnits="userSpaceOnUse" id="clipPath63">
<path d="M136 483 L204 483 L204 500 L136 500 L136 483 Z"/>
</clipPath>
<clipPath clipPathUnits="userSpaceOnUse" id="clipPath64">
<path d="M142 198 L234 198 L234 225 L142 225 L142 198 Z"/>
</clipPath>
<clipPath clipPathUnits="userSpaceOnUse" id="clipPath65">
<path d="M167 203 L209 203 L209 220 L167 220 L167 203 Z"/>
</clipPath>
<clipPath clipPathUnits="userSpaceOnUse" id="clipPath66">
<path d="M129 357 L221 357 L221 384 L129 384 L129 357 Z"/>
</clipPath>
<clipPath clipPathUnits="userSpaceOnUse" id="clipPath67">
<path d="M143 362 L206 362 L206 379 L143 379 L143 362 Z"/>
</clipPath>
<clipPath clipPathUnits="userSpaceOnUse" id="clipPath68">
<path d="M334 223 L426 223 L426 250 L334 250 L334 223 Z"/>
</clipPath>
<clipPath clipPathUnits="userSpaceOnUse" id="clipPath69">
<path d="M343 228 L416 228 L416 245 L343 245 L343 228 Z"/>
</clipPath>
<clipPath clipPathUnits="userSpaceOnUse" id="clipPath70">
<path d="M479 228 L571 228 L571 255 L479 255 L479 228 Z"/>
</clipPath>
<clipPath clipPathUnits="userSpaceOnUse" id="clipPath71">
<path d="M508 233 L541 233 L541 250 L508 250 L508 233 Z"/>
</clipPath>
<clipPath clipPathUnits="userSpaceOnUse" id="clipPath72">
<path d="M370 333 L462 333 L462 360 L370 360 L370 333 Z"/>
</clipPath>
<clipPath clipPathUnits="userSpaceOnUse" id="clipPath73">
<path d="M404 338 L428 338 L428 355 L404 355 L404 338 Z"/>
</clipPath>
<clipPath clipPathUnits="userSpaceOnUse" id="clipPath74">
<path d="M544 255 L636 255 L636 282 L544 282 L544 255 Z"/>
</clipPath>
<clipPath clipPathUnits="userSpaceOnUse" id="clipPath75">
<path d="M567 260 L612 260 L612 277 L567 277 L567 260 Z"/>
</clipPath>
<clipPath clipPathUnits="userSpaceOnUse" id="clipPath76">
<path d="M500 467 L592 467 L592 494 L500 494 L500 467 Z"/>
</clipPath>
<clipPath clipPathUnits="userSpaceOnUse" id="clipPath77">
<path d="M529 472 L563 472 L563 489 L529 489 L529 472 Z"/>
</clipPath>
<clipPath clipPathUnits="userSpaceOnUse" id="clipPath78">
<path d="M638 471 L730 471 L730 498 L638 498 L638 471 Z"/>
</clipPath>
<clipPath clipPathUnits="userSpaceOnUse" id="clipPath79">
<path d="M660 476 L708 476 L708 493 L660 493 L660 476 Z"/>
</clipPath>
<clipPath clipPathUnits="userSpaceOnUse" id="clipPath80">
<path d="M649 243 L741 243 L741 270 L649 270 L649 243 Z"/>
</clipPath>
<clipPath clipPathUnits="userSpaceOnUse" id="clipPath81">
<path d="M677 248 L713 248 L713 265 L677 265 L677 248 Z"/>
</clipPath>
<clipPath clipPathUnits="userSpaceOnUse" id="clipPath82">
<path d="M669 123 L751 123 L751 150 L669 150 L669 123 Z"/>
</clipPath>
<clipPath clipPathUnits="userSpaceOnUse" id="clipPath83">
<path d="M688 128 L731 128 L731 145 L688 145 L688 128 Z"/>
</clipPath>
<clipPath clipPathUnits="userSpaceOnUse" id="clipPath84">
<path d="M639 283 L731 283 L731 310 L639 310 L639 283 Z"/>
</clipPath>
<clipPath clipPathUnits="userSpaceOnUse" id="clipPath85">
<path d="M662 288 L707 288 L707 305 L662 305 L662 288 Z"/>
</clipPath>
<clipPath clipPathUnits="userSpaceOnUse" id="clipPath86">
<path d="M574 208 L666 208 L666 235 L574 235 L574 208 Z"/>
</clipPath>
<clipPath clipPathUnits="userSpaceOnUse" id="clipPath87">
<path d="M597 213 L643 213 L643 230 L597 230 L597 213 Z"/>
</clipPath>
<clipPath clipPathUnits="userSpaceOnUse" id="clipPath88">
<path d="M9 483 L101 483 L101 510 L9 510 L9 483 Z"/>
</clipPath>
<clipPath clipPathUnits="userSpaceOnUse" id="clipPath89">
<path d="M34 488 L76 488 L76 505 L34 505 L34 488 Z"/>
</clipPath>
<clipPath clipPathUnits="userSpaceOnUse" id="clipPath90">
<path d="M299 148 L391 148 L391 175 L299 175 L299 148 Z"/>
</clipPath>
<clipPath clipPathUnits="userSpaceOnUse" id="clipPath91">
<path d="M318 153 L371 153 L371 170 L318 170 L318 153 Z"/>
</clipPath>
<clipPath clipPathUnits="userSpaceOnUse" id="clipPath92">
<path d="M354 478 L446 478 L446 505 L354 505 L354 478 Z"/>
</clipPath>
<clipPath clipPathUnits="userSpaceOnUse" id="clipPath93">
<path d="M362 483 L438 483 L438 500 L362 500 L362 483 Z"/>
</clipPath>
<clipPath clipPathUnits="userSpaceOnUse" id="clipPath94">
<path d="M598 325 L700 325 L700 367 L598 367 L598 325 Z"/>
</clipPath>
<clipPath clipPathUnits="userSpaceOnUse" id="clipPath95">
<path d="M616 337 L682 337 L682 354 L616 354 L616 337 Z"/>
</clipPath>
<clipPath clipPathUnits="userSpaceOnUse" id="clipPath96">
<path d="M-1 -1 L1206 -1 L1206 520 L-1 520 L-1 -1 Z"/>
</clipPath>
<clipPath clipPathUnits="userSpaceOnUse" id="clipPath97">
<path d="M784 82 L793 82 L793 99 L784 99 L784 82 Z"/>
</clipPath>
<clipPath clipPathUnits="userSpaceOnUse" id="clipPath98">
<path d="M636 77 L645 77 L645 94 L636 94 L636 77 Z"/>
</clipPath>
<clipPath clipPathUnits="userSpaceOnUse" id="clipPath99">
<path d="M529 73 L538 73 L538 90 L529 90 L529 73 Z"/>
</clipPath>
<clipPath clipPathUnits="userSpaceOnUse" id="clipPath100">
<path d="M456 143 L465 143 L465 160 L456 160 L456 143 Z"/>
</clipPath>
<clipPath clipPathUnits="userSpaceOnUse" id="clipPath101">
<path d="M466 229 L475 229 L475 246 L466 246 L466 229 Z"/>
</clipPath>
<clipPath clipPathUnits="userSpaceOnUse" id="clipPath102">
<path d="M409 284 L418 284 L418 301 L409 301 L409 284 Z"/>
</clipPath>
<clipPath clipPathUnits="userSpaceOnUse" id="clipPath103">
<path d="M369 322 L378 322 L378 339 L369 339 L369 322 Z"/>
</clipPath>
<clipPath clipPathUnits="userSpaceOnUse" id="clipPath104">
<path d="M623 314 L634 314 L634 331 L623 331 L623 314 Z"/>
</clipPath>
<clipPath clipPathUnits="userSpaceOnUse" id="clipPath105">
<path d="M560 305 L618 305 L618 322 L560 322 L560 305 Z"/>
</clipPath>
<clipPath clipPathUnits="userSpaceOnUse" id="clipPath106">
<path d="M588 337 L597 337 L597 354 L588 354 L588 337 Z"/>
</clipPath>
<clipPath clipPathUnits="userSpaceOnUse" id="clipPath107">
<path d="M534 327 L591 327 L591 344 L534 344 L534 327 Z"/>
</clipPath>
<clipPath clipPathUnits="userSpaceOnUse" id="clipPath108">
<path d="M189 395 L200 395 L200 412 L189 412 L189 395 Z"/>
</clipPath>
<clipPath clipPathUnits="userSpaceOnUse" id="clipPath109">
<path d="M267 296 L276 296 L276 313 L267 313 L267 296 Z"/>
</clipPath>
<clipPath clipPathUnits="userSpaceOnUse" id="clipPath110">
<path d="M923 73 L934 73 L934 90 L923 90 L923 73 Z"/>
</clipPath>
</defs>
<g fill="white" font-family="'Segoe UI'" stroke-linejoin="round" stroke="white" stroke-width="0" stroke-miterlimit="0">
<rect x="665" y="64" clip-path="url(#clipPath1)" width="85" height="47" stroke="none"/>
</g>
<g stroke-width="1.1" font-family="'Segoe UI'" stroke-linecap="butt">
<rect x="665" y="64" clip-path="url(#clipPath1)" fill="none" width="84" height="46"/>
<text x="673" y="93" clip-path="url(#clipPath2)" stroke="none" font-weight="bold" xml:space="preserve">Department</text>
<rect x="415" y="74" clip-path="url(#clipPath3)" fill="white" width="96" height="44" stroke="none"/>
<rect x="415" y="74" clip-path="url(#clipPath3)" fill="none" width="95" height="43"/>
<text x="443" y="101" clip-path="url(#clipPath4)" stroke="none" font-weight="bold" xml:space="preserve">Project</text>
<rect x="445" y="269" clip-path="url(#clipPath5)" fill="white" width="91" height="51" stroke="none"/>
<rect x="445" y="269" clip-path="url(#clipPath5)" fill="none" width="90" height="50"/>
<text x="463" y="300" clip-path="url(#clipPath6)" stroke="none" font-weight="bold" xml:space="preserve">Employee</text>
<rect x="60" y="429" clip-path="url(#clipPath7)" fill="white" width="86" height="41" stroke="none"/>
<rect x="60" y="429" clip-path="url(#clipPath7)" fill="none" width="85" height="40"/>
<rect x="69" y="433" clip-path="url(#clipPath7)" fill="none" width="68" height="32"/>
<text x="71" y="455" clip-path="url(#clipPath8)" stroke="none" font-weight="bold" xml:space="preserve">Dependent</text>
<rect x="85" y="269" clip-path="url(#clipPath9)" fill="white" width="151" height="56" stroke="none"/>
<rect x="85" y="269" clip-path="url(#clipPath9)" fill="none" width="150" height="55"/>
<rect x="100" y="275" clip-path="url(#clipPath9)" fill="none" width="120" height="44"/>
<text x="93" y="302" clip-path="url(#clipPath10)" stroke="none" font-weight="bold" xml:space="preserve">Employee_Identification</text>
<rect x="970" y="69" clip-path="url(#clipPath11)" fill="white" width="90" height="40" stroke="none"/>
<rect x="970" y="69" clip-path="url(#clipPath11)" fill="none" width="89" height="39"/>
<text x="994" y="94" clip-path="url(#clipPath12)" stroke="none" font-weight="bold" xml:space="preserve">Budget</text>
<polygon fill="white" clip-path="url(#clipPath13)" points=" 540 91 584 74 629 91 584 109" stroke="none"/>
<polygon fill="none" clip-path="url(#clipPath13)" points=" 540 91 584 74 629 91 584 109"/>
<text x="562" y="97" clip-path="url(#clipPath14)" stroke="none" font-weight="bold" xml:space="preserve">controls</text>
<polygon fill="white" clip-path="url(#clipPath15)" points=" 255 368 304 349 353 368 304 388" stroke="none"/>
<polygon fill="none" clip-path="url(#clipPath15)" points=" 255 368 304 349 353 368 304 388"/>
<polygon fill="none" clip-path="url(#clipPath15)" points=" 265 368 304 353 343 368 304 384"/>
<text x="278" y="374" clip-path="url(#clipPath16)" stroke="none" font-weight="bold" xml:space="preserve">identifies</text>
<polygon fill="white" clip-path="url(#clipPath17)" points=" 415 193 464 174 513 193 464 213" stroke="none"/>
<polygon fill="none" clip-path="url(#clipPath17)" points=" 415 193 464 174 513 193 464 213"/>
<text x="440" y="199" clip-path="url(#clipPath18)" stroke="none" font-weight="bold" xml:space="preserve">manages</text>
<polygon fill="white" clip-path="url(#clipPath19)" points=" 805 88 854 69 903 88 854 108" stroke="none"/>
<polygon fill="none" clip-path="url(#clipPath19)" points=" 805 88 854 69 903 88 854 108"/>
<text x="831" y="94" clip-path="url(#clipPath20)" stroke="none" font-weight="bold" xml:space="preserve">maitains</text>
<polygon fill="white" clip-path="url(#clipPath21)" points=" 295 298 344 279 393 298 344 318" stroke="none"/>
<polygon fill="none" clip-path="url(#clipPath21)" points=" 295 298 344 279 393 298 344 318"/>
<polygon fill="none" clip-path="url(#clipPath21)" points=" 305 298 344 283 383 298 344 314"/>
<text x="311" y="304" clip-path="url(#clipPath22)" stroke="none" font-weight="bold" xml:space="preserve">depends_on</text>
<rect x="455" y="404" clip-path="url(#clipPath23)" fill="white" width="100" height="45" stroke="none"/>
<rect x="455" y="404" clip-path="url(#clipPath23)" fill="none" width="99" height="44"/>
<text x="475" y="432" clip-path="url(#clipPath24)" stroke="none" font-weight="bold" xml:space="preserve">Technician</text>
<rect x="570" y="404" clip-path="url(#clipPath25)" fill="white" width="100" height="40" stroke="none"/>
<rect x="570" y="404" clip-path="url(#clipPath25)" fill="none" width="99" height="39"/>
<text x="595" y="429" clip-path="url(#clipPath26)" stroke="none" font-weight="bold" xml:space="preserve">Engineer</text>
<rect x="340" y="404" clip-path="url(#clipPath27)" fill="white" width="100" height="45" stroke="none"/>
<rect x="340" y="404" clip-path="url(#clipPath27)" fill="none" width="99" height="44"/>
<text x="362" y="432" clip-path="url(#clipPath28)" stroke="none" font-weight="bold" xml:space="preserve">Secretary</text>
<circle clip-path="url(#clipPath29)" fill="white" r="14" cx="494" cy="348" stroke="none"/>
<circle fill="none" r="14.5" clip-path="url(#clipPath29)" cx="494.5" cy="348.5"/>
<text x="491" y="354" clip-path="url(#clipPath30)" stroke="none" font-weight="bold" xml:space="preserve">o</text>
<text x="491" y="354" clip-path="url(#clipPath30)" stroke="none" font-weight="bold" xml:space="preserve"> </text>
<ellipse clip-path="url(#clipPath31)" fill="white" rx="44" cx="1109" ry="11.5" cy="40.5" stroke="none"/>
<ellipse clip-path="url(#clipPath31)" fill="none" rx="44.5" cx="1109.5" ry="12" cy="41"/>
<text x="1083" y="47" clip-path="url(#clipPath32)" stroke="none" font-weight="bold" xml:space="preserve">approved</text>
<text x="1083" y="47" clip-path="url(#clipPath32)" stroke="none" font-weight="bold" xml:space="preserve"> </text>
<ellipse clip-path="url(#clipPath33)" fill="white" rx="44" cx="1149" ry="11.5" cy="85.5" stroke="none"/>
<ellipse clip-path="url(#clipPath33)" fill="none" rx="44.5" cx="1149.5" ry="12" cy="86"/>
<text x="1120" y="92" clip-path="url(#clipPath34)" stroke="none" font-weight="bold" xml:space="preserve">initial_date</text>
<text x="1120" y="92" clip-path="url(#clipPath34)" stroke="none" font-weight="bold" xml:space="preserve"> </text>
<ellipse clip-path="url(#clipPath35)" fill="white" rx="44" cx="1124" ry="11.5" cy="135.5" stroke="none"/>
<ellipse clip-path="url(#clipPath35)" fill="none" rx="44.5" cx="1124.5" ry="12" cy="136"/>
<text x="1098" y="142" clip-path="url(#clipPath36)" stroke="none" font-weight="bold" xml:space="preserve">final_date</text>
<text x="1098" y="142" clip-path="url(#clipPath36)" stroke="none" font-weight="bold" xml:space="preserve"> </text>
<ellipse clip-path="url(#clipPath37)" fill="white" rx="44" cx="1014" ry="11.5" cy="140.5" stroke="none"/>
<ellipse clip-path="url(#clipPath37)" fill="none" rx="44.5" cx="1014.5" ry="12" cy="141"/>
<text x="994" y="147" clip-path="url(#clipPath38)" stroke="none" font-weight="bold" xml:space="preserve">balance</text>
<text x="994" y="147" clip-path="url(#clipPath38)" stroke="none" font-weight="bold" xml:space="preserve"> </text>
<ellipse clip-path="url(#clipPath39)" fill="white" rx="44" cx="994" ry="11.5" cy="40.5" stroke="none"/>
<ellipse clip-path="url(#clipPath39)" fill="none" rx="44.5" cx="994.5" ry="12" cy="41"/>
<text x="967" y="47" clip-path="url(#clipPath40)" stroke="none" font-weight="bold" xml:space="preserve">budget_id</text>
<text x="967" y="47" clip-path="url(#clipPath40)" stroke="none" font-weight="bold" xml:space="preserve">________________________________________________________</text>
<ellipse clip-path="url(#clipPath41)" fill="white" rx="44" cx="604" ry="11.5" cy="135.5" stroke="none"/>
<ellipse clip-path="url(#clipPath41)" fill="none" rx="44.5" cx="604.5" ry="12" cy="136"/>
<text x="592" y="142" clip-path="url(#clipPath42)" stroke="none" font-weight="bold" xml:space="preserve">area</text>
<text x="592" y="142" clip-path="url(#clipPath42)" stroke="none" font-weight="bold" xml:space="preserve"> </text>
<ellipse clip-path="url(#clipPath43)" fill="white" rx="44" cx="814" ry="11.5" cy="135.5" stroke="none"/>
<ellipse clip-path="url(#clipPath43)" fill="none" rx="44.5" cx="814.5" ry="12" cy="136"/>
<text x="777" y="142" clip-path="url(#clipPath44)" stroke="none" font-weight="bold" xml:space="preserve">creation_date</text>
<text x="777" y="142" clip-path="url(#clipPath44)" stroke="none" font-weight="bold" xml:space="preserve"> </text>
<ellipse clip-path="url(#clipPath45)" fill="white" rx="44" cx="704" ry="11.5" cy="21.5" stroke="none"/>
<ellipse clip-path="url(#clipPath45)" fill="none" stroke-dasharray="6.6,3.3" rx="44.5" cx="704.5" ry="12" cy="22"/>
<text x="668" y="28" clip-path="url(#clipPath46)" stroke-dasharray="6.6,3.3" stroke="none" font-weight="bold" xml:space="preserve">qtty_projects</text>
<text x="668" y="28" clip-path="url(#clipPath46)" stroke-dasharray="6.6,3.3" stroke="none" font-weight="bold" xml:space="preserve"> </text>
<ellipse clip-path="url(#clipPath47)" fill="white" rx="44" stroke-dasharray="6.6,3.3" cx="809" ry="11.5" cy="25.5" stroke="none"/>
<ellipse clip-path="url(#clipPath47)" fill="none" rx="44.5" cx="809.5" ry="12" cy="26"/>
<text x="805" y="32" clip-path="url(#clipPath48)" stroke="none" font-weight="bold" xml:space="preserve">...</text>
<text x="770" y="32" clip-path="url(#clipPath49)" stroke="none" font-weight="bold" xml:space="preserve">department...</text>
<text x="770" y="32" clip-path="url(#clipPath49)" stroke="none" font-weight="bold" xml:space="preserve">_____________________________________________________________________________</text>
<ellipse clip-path="url(#clipPath50)" fill="white" rx="44" cx="594" ry="11.5" cy="25.5" stroke="none"/>
<ellipse clip-path="url(#clipPath50)" fill="none" rx="44.5" cx="594.5" ry="12" cy="26"/>
<text x="579" y="32" clip-path="url(#clipPath51)" stroke="none" font-weight="bold" xml:space="preserve">name</text>
<text x="579" y="32" clip-path="url(#clipPath51)" stroke="none" font-weight="bold" xml:space="preserve"> </text>
<ellipse clip-path="url(#clipPath52)" fill="white" rx="44" cx="322" ry="11.5" cy="82.5" stroke="none"/>
<ellipse clip-path="url(#clipPath52)" fill="none" rx="44.5" cx="322.5" ry="12" cy="83"/>
<text x="307" y="89" clip-path="url(#clipPath53)" stroke="none" font-weight="bold" xml:space="preserve">name</text>
<text x="307" y="89" clip-path="url(#clipPath53)" stroke="none" font-weight="bold" xml:space="preserve"> </text>
<ellipse clip-path="url(#clipPath54)" fill="white" rx="44" cx="449" ry="11.5" cy="30.5" stroke="none"/>
<ellipse clip-path="url(#clipPath54)" fill="none" rx="44.5" cx="449.5" ry="12" cy="31"/>
<text x="422" y="37" clip-path="url(#clipPath55)" stroke="none" font-weight="bold" xml:space="preserve">project_id</text>
<text x="422" y="37" clip-path="url(#clipPath55)" stroke="none" font-weight="bold" xml:space="preserve">________________________________________________________</text>
<ellipse clip-path="url(#clipPath56)" fill="white" rx="44" cx="329" ry="11.5" cy="120.5" stroke="none"/>
<ellipse clip-path="url(#clipPath56)" fill="none" rx="44.5" cx="329.5" ry="12" cy="121"/>
<text x="300" y="127" clip-path="url(#clipPath57)" stroke="none" font-weight="bold" xml:space="preserve">initial_date</text>
<text x="300" y="127" clip-path="url(#clipPath57)" stroke="none" font-weight="bold" xml:space="preserve"> </text>
<ellipse clip-path="url(#clipPath58)" fill="white" rx="44" cx="69" ry="11.5" cy="380.5" stroke="none"/>
<ellipse clip-path="url(#clipPath58)" fill="none" rx="44.5" cx="69.5" ry="12" cy="381"/>
<text x="54" y="387" clip-path="url(#clipPath59)" stroke="none" font-weight="bold" xml:space="preserve">name</text>
<text x="54" y="387" clip-path="url(#clipPath59)" stroke="none" font-weight="bold" xml:space="preserve">_ _ _ _ _ _ _ _ _ _ _ _ _ _ _ _</text>
<ellipse clip-path="url(#clipPath60)" fill="white" rx="44" cx="224" ry="11.5" cy="450.5" stroke="none"/>
<ellipse clip-path="url(#clipPath60)" fill="none" rx="44.5" cx="224.5" ry="12" cy="451"/>
<text x="214" y="457" clip-path="url(#clipPath61)" stroke="none" font-weight="bold" xml:space="preserve">dob</text>
<text x="214" y="457" clip-path="url(#clipPath61)" stroke="none" font-weight="bold" xml:space="preserve"> </text>
<ellipse clip-path="url(#clipPath62)" fill="white" rx="44" cx="169" ry="11.5" cy="490.5" stroke="none"/>
<ellipse clip-path="url(#clipPath62)" fill="none" rx="44.5" cx="169.5" ry="12" cy="491"/>
<text x="137" y="497" clip-path="url(#clipPath63)" stroke="none" font-weight="bold" xml:space="preserve">relationship</text>
<text x="137" y="497" clip-path="url(#clipPath63)" stroke="none" font-weight="bold" xml:space="preserve"> </text>
<ellipse clip-path="url(#clipPath64)" fill="white" rx="44" cx="187" ry="11.5" cy="210.5" stroke="none"/>
<ellipse clip-path="url(#clipPath64)" fill="none" rx="44.5" cx="187.5" ry="12" cy="211"/>
<text x="168" y="217" clip-path="url(#clipPath65)" stroke="none" font-weight="bold" xml:space="preserve">picture</text>
<text x="168" y="217" clip-path="url(#clipPath65)" stroke="none" font-weight="bold" xml:space="preserve"> </text>
<ellipse clip-path="url(#clipPath66)" fill="white" rx="44" cx="174" ry="11.5" cy="369.5" stroke="none"/>
<ellipse clip-path="url(#clipPath66)" fill="none" rx="44.5" cx="174.5" ry="12" cy="370"/>
<text x="144" y="376" clip-path="url(#clipPath67)" stroke="none" font-weight="bold" xml:space="preserve">fingerprint</text>
<text x="144" y="376" clip-path="url(#clipPath67)" stroke="none" font-weight="bold" xml:space="preserve"> </text>
<ellipse clip-path="url(#clipPath68)" fill="white" rx="44" cx="379" ry="11.5" cy="235.5" stroke="none"/>
<ellipse clip-path="url(#clipPath68)" fill="none" rx="44.5" cx="379.5" ry="12" cy="236"/>
<text x="344" y="242" clip-path="url(#clipPath69)" stroke="none" font-weight="bold" xml:space="preserve">employee_id</text>
<text x="344" y="242" clip-path="url(#clipPath69)" stroke="none" font-weight="bold" xml:space="preserve">_______________________________________________________________________</text>
<ellipse clip-path="url(#clipPath70)" fill="white" rx="44" cx="524" ry="11.5" cy="240.5" stroke="none"/>
<ellipse clip-path="url(#clipPath70)" fill="none" rx="44.5" cx="524.5" ry="12" cy="241"/>
<text x="509" y="247" clip-path="url(#clipPath71)" stroke="none" font-weight="bold" xml:space="preserve">name</text>
<text x="509" y="247" clip-path="url(#clipPath71)" stroke="none" font-weight="bold" xml:space="preserve"> </text>
<ellipse clip-path="url(#clipPath72)" fill="white" rx="44" cx="415" ry="11.5" cy="345.5" stroke="none"/>
<ellipse clip-path="url(#clipPath72)" fill="none" rx="44.5" cx="415.5" ry="12" cy="346"/>
<text x="405" y="352" clip-path="url(#clipPath73)" stroke="none" font-weight="bold" xml:space="preserve">dob</text>
<text x="405" y="352" clip-path="url(#clipPath73)" stroke="none" font-weight="bold" xml:space="preserve"> </text>
<ellipse clip-path="url(#clipPath74)" fill="white" rx="44" cx="589" ry="11.5" cy="267.5" stroke="none"/>
<ellipse clip-path="url(#clipPath74)" fill="none" rx="44.5" cx="589.5" ry="12" cy="268"/>
<text x="568" y="274" clip-path="url(#clipPath75)" stroke="none" font-weight="bold" xml:space="preserve">address</text>
<text x="568" y="274" clip-path="url(#clipPath75)" stroke="none" font-weight="bold" xml:space="preserve"> </text>
<ellipse clip-path="url(#clipPath76)" fill="white" rx="44" cx="545" ry="11.5" cy="479.5" stroke="none"/>
<ellipse clip-path="url(#clipPath76)" fill="none" rx="44.5" cx="545.5" ry="12" cy="480"/>
<text x="530" y="486" clip-path="url(#clipPath77)" stroke="none" font-weight="bold" xml:space="preserve">grade</text>
<text x="530" y="486" clip-path="url(#clipPath77)" stroke="none" font-weight="bold" xml:space="preserve"> </text>
<ellipse clip-path="url(#clipPath78)" fill="white" rx="44" cx="683" ry="11.5" cy="483.5" stroke="none"/>
<ellipse clip-path="url(#clipPath78)" fill="none" rx="44.5" cx="683.5" ry="12" cy="484"/>
<text x="661" y="490" clip-path="url(#clipPath79)" stroke="none" font-weight="bold" xml:space="preserve">EngType</text>
<text x="661" y="490" clip-path="url(#clipPath79)" stroke="none" font-weight="bold" xml:space="preserve"> </text>
<ellipse clip-path="url(#clipPath80)" fill="white" rx="44" cx="694" ry="11.5" cy="255.5" stroke="none"/>
<ellipse clip-path="url(#clipPath80)" fill="none" rx="44.5" cx="694.5" ry="12" cy="256"/>
<text x="678" y="262" clip-path="url(#clipPath81)" stroke="none" font-weight="bold" xml:space="preserve">street</text>
<text x="678" y="262" clip-path="url(#clipPath81)" stroke="none" font-weight="bold" xml:space="preserve"> </text>
<ellipse clip-path="url(#clipPath82)" fill="white" rx="39" cx="709" ry="11.5" cy="135.5" stroke="none"/>
<ellipse clip-path="url(#clipPath82)" fill="none" rx="39.5" cx="709.5" ry="12" cy="136"/>
<ellipse clip-path="url(#clipPath82)" fill="none" rx="32" cx="710" ry="10" cy="136"/>
<text x="689" y="142" clip-path="url(#clipPath83)" stroke="none" font-weight="bold" xml:space="preserve">phones</text>
<text x="689" y="142" clip-path="url(#clipPath83)" stroke="none" font-weight="bold" xml:space="preserve"> </text>
<ellipse clip-path="url(#clipPath84)" fill="white" rx="44" cx="684" ry="11.5" cy="295.5" stroke="none"/>
<ellipse clip-path="url(#clipPath84)" fill="none" rx="44.5" cx="684.5" ry="12" cy="296"/>
<text x="663" y="302" clip-path="url(#clipPath85)" stroke="none" font-weight="bold" xml:space="preserve">zipcode</text>
<text x="663" y="302" clip-path="url(#clipPath85)" stroke="none" font-weight="bold" xml:space="preserve"> </text>
<ellipse clip-path="url(#clipPath86)" fill="white" rx="44" cx="619" ry="11.5" cy="220.5" stroke="none"/>
<ellipse clip-path="url(#clipPath86)" fill="none" rx="44.5" cx="619.5" ry="12" cy="221"/>
<text x="598" y="227" clip-path="url(#clipPath87)" stroke="none" font-weight="bold" xml:space="preserve">number</text>
<text x="598" y="227" clip-path="url(#clipPath87)" stroke="none" font-weight="bold" xml:space="preserve"> </text>
<ellipse clip-path="url(#clipPath88)" fill="white" rx="44" cx="54" ry="11.5" cy="495.5" stroke="none"/>
<ellipse clip-path="url(#clipPath88)" fill="none" rx="44.5" cx="54.5" ry="12" cy="496"/>
<text x="35" y="502" clip-path="url(#clipPath89)" stroke="none" font-weight="bold" xml:space="preserve">gender</text>
<text x="35" y="502" clip-path="url(#clipPath89)" stroke="none" font-weight="bold" xml:space="preserve"> </text>
<ellipse clip-path="url(#clipPath90)" fill="white" rx="44" cx="344" ry="11.5" cy="160.5" stroke="none"/>
<ellipse clip-path="url(#clipPath90)" fill="none" rx="44.5" cx="344.5" ry="12" cy="161"/>
<text x="319" y="167" clip-path="url(#clipPath91)" stroke="none" font-weight="bold" xml:space="preserve">end_date</text>
<text x="319" y="167" clip-path="url(#clipPath91)" stroke="none" font-weight="bold" xml:space="preserve"> </text>
<ellipse clip-path="url(#clipPath92)" fill="white" rx="44" cx="399" ry="11.5" cy="490.5" stroke="none"/>
<ellipse clip-path="url(#clipPath92)" fill="none" rx="44.5" cx="399.5" ry="12" cy="491"/>
<text x="363" y="497" clip-path="url(#clipPath93)" stroke="none" font-weight="bold" xml:space="preserve">typing_speed</text>
<text x="363" y="497" clip-path="url(#clipPath93)" stroke="none" font-weight="bold" xml:space="preserve"> </text>
<polygon fill="white" clip-path="url(#clipPath94)" points=" 599 345 648 326 697 345 648 365" stroke="none"/>
<polygon fill="none" clip-path="url(#clipPath94)" points=" 599 345 648 326 697 345 648 365"/>
<text x="617" y="351" clip-path="url(#clipPath95)" stroke="none" font-weight="bold" xml:space="preserve">supervision</text>
<line clip-path="url(#clipPath96)" fill="none" x1="750" x2="815" y1="85" y2="85"/>
<text xml:space="preserve" x="785" y="96" clip-path="url(#clipPath97)" stroke="none">1</text>
<line clip-path="url(#clipPath96)" fill="none" x1="665" x2="625" y1="90" y2="90"/>
<text xml:space="preserve" x="637" y="91" clip-path="url(#clipPath98)" stroke="none">1</text>
<line clip-path="url(#clipPath96)" fill="none" x1="665" x2="614" y1="64" y2="37"/>
<line clip-path="url(#clipPath96)" fill="none" x1="705" x2="705" y1="64" y2="35"/>
<line clip-path="url(#clipPath96)" fill="none" x1="746" x2="791" y1="64" y2="37"/>
<line clip-path="url(#clipPath96)" fill="none" x1="750" x2="790" y1="106" y2="125"/>
<line clip-path="url(#clipPath96)" fill="none" x1="665" x2="628" y1="107" y2="125"/>
<line clip-path="url(#clipPath96)" fill="none" x1="721" x2="715" y1="111" y2="124"/>
<line clip-path="url(#clipPath96)" fill="none" x1="511" x2="545" y1="90" y2="90"/>
<text xml:space="preserve" x="530" y="87" clip-path="url(#clipPath99)" stroke="none">1</text>
<line clip-path="url(#clipPath96)" fill="none" x1="465" x2="465" y1="118" y2="174"/>
<text xml:space="preserve" x="457" y="157" clip-path="url(#clipPath100)" stroke="none">1</text>
<line clip-path="url(#clipPath96)" fill="none" x1="415" x2="367" y1="83" y2="83"/>
<line clip-path="url(#clipPath96)" fill="none" x1="415" x2="370" y1="108" y2="115"/>
<line clip-path="url(#clipPath96)" fill="none" x1="437" x2="446" y1="74" y2="43"/>
<line clip-path="url(#clipPath96)" fill="none" x1="426" x2="385" y1="118" y2="155"/>
<line clip-path="url(#clipPath96)" fill="none" x1="465" x2="465" y1="269" y2="214"/>
<text xml:space="preserve" x="467" y="243" clip-path="url(#clipPath101)" stroke="none">1</text>
<line clip-path="url(#clipPath96)" fill="none" x1="445" x2="390" y1="297" y2="297"/>
<text xml:space="preserve" x="410" y="298" clip-path="url(#clipPath102)" stroke="none">1</text>
<line clip-path="url(#clipPath96)" fill="none" x1="445" x2="406" y1="312" y2="325"/>
<line clip-path="url(#clipPath96)" fill="none" x1="406" x2="313" y1="325" y2="352"/>
<text xml:space="preserve" x="370" y="336" clip-path="url(#clipPath103)" stroke="none">1</text>
<line clip-path="url(#clipPath96)" fill="none" x1="495" x2="495" y1="320" y2="334"/>
<line clip-path="url(#clipPath96)" fill="none" x1="500" x2="500" y1="320" y2="334"/>
<line clip-path="url(#clipPath96)" fill="none" x1="445" x2="400" y1="270" y2="247"/>
<line clip-path="url(#clipPath96)" fill="none" x1="507" x2="517" y1="269" y2="253"/>
<line clip-path="url(#clipPath96)" fill="none" x1="453" x2="432" y1="320" y2="334"/>
<line clip-path="url(#clipPath96)" fill="none" x1="536" x2="555" y1="282" y2="277"/>
<line clip-path="url(#clipPath96)" fill="none" x1="536" x2="647" y1="301" y2="326"/>
<text xml:space="preserve" x="624" y="328" clip-path="url(#clipPath104)" stroke="none">N</text>
<text xml:space="preserve" x="561" y="319" clip-path="url(#clipPath105)" stroke="none">supervisee</text>
<line clip-path="url(#clipPath96)" fill="none" x1="533" x2="599" y1="320" y2="345"/>
<text xml:space="preserve" x="589" y="351" clip-path="url(#clipPath106)" stroke="none">1</text>
<text xml:space="preserve" x="535" y="341" clip-path="url(#clipPath107)" stroke="none">supervisor</text>
<line clip-path="url(#clipPath96)" fill="none" x1="113" x2="264" y1="429" y2="372"/>
<line clip-path="url(#clipPath96)" fill="none" x1="118" x2="269" y1="429" y2="372"/>
<text xml:space="preserve" x="190" y="409" clip-path="url(#clipPath108)" stroke="none">N</text>
<line clip-path="url(#clipPath96)" fill="none" x1="109" x2="79" y1="429" y2="393"/>
<line clip-path="url(#clipPath96)" fill="none" x1="146" x2="182" y1="454" y2="454"/>
<line clip-path="url(#clipPath96)" fill="none" x1="137" x2="137" y1="470" y2="481"/>
<line clip-path="url(#clipPath96)" fill="none" x1="98" x2="62" y1="470" y2="484"/>
<line clip-path="url(#clipPath96)" fill="none" x1="236" x2="295" y1="299" y2="299"/>
<line clip-path="url(#clipPath96)" fill="none" x1="236" x2="295" y1="304" y2="304"/>
<text xml:space="preserve" x="268" y="310" clip-path="url(#clipPath109)" stroke="none">1</text>
<line clip-path="url(#clipPath96)" fill="none" x1="188" x2="188" y1="325" y2="358"/>
<line clip-path="url(#clipPath96)" fill="none" x1="188" x2="188" y1="269" y2="224"/>
<line clip-path="url(#clipPath96)" fill="none" x1="970" x2="897" y1="86" y2="86"/>
<text xml:space="preserve" x="924" y="87" clip-path="url(#clipPath110)" stroke="none">N</text>
<line clip-path="url(#clipPath96)" fill="none" x1="1006" x2="1000" y1="69" y2="53"/>
<line clip-path="url(#clipPath96)" fill="none" x1="1055" x2="1088" y1="69" y2="52"/>
<line clip-path="url(#clipPath96)" fill="none" x1="1060" x2="1105" y1="86" y2="86"/>
<line clip-path="url(#clipPath96)" fill="none" x1="1060" x2="1099" y1="108" y2="125"/>
<line clip-path="url(#clipPath96)" fill="none" x1="1015" x2="1015" y1="109" y2="129"/>
<line clip-path="url(#clipPath96)" fill="none" x1="495" x2="495" y1="404" y2="364"/>
<path fill="none" stroke-width="2.1" d="M504 384 A9.5 10 0 0 1 485 384" clip-path="url(#clipPath96)"/>
<line clip-path="url(#clipPath96)" fill="none" x1="522" x2="536" y1="449" y2="468"/>
<line clip-path="url(#clipPath96)" fill="none" x1="595" x2="507" y1="404" y2="356"/>
<path fill="none" stroke-width="2.1" d="M554.96 371.1705 A9.5 10 0 0 1 546.04 388.8295" clip-path="url(#clipPath96)"/>
<line clip-path="url(#clipPath96)" fill="none" x1="613" x2="663" y1="444" y2="472"/>
<line clip-path="url(#clipPath96)" fill="none" x1="428" x2="481" y1="404" y2="356"/>
<path fill="none" stroke-width="2.1" d="M459.979 387.3135 A9.5 10 0 0 1 447.021 372.6865" clip-path="url(#clipPath96)"/>
<line clip-path="url(#clipPath96)" fill="none" x1="393" x2="393" y1="449" y2="479"/>
<line clip-path="url(#clipPath96)" fill="none" x1="631" x2="656" y1="263" y2="263"/>
<line clip-path="url(#clipPath96)" fill="none" x1="609" x2="616" y1="256" y2="233"/>
<line clip-path="url(#clipPath96)" fill="none" x1="621" x2="651" y1="277" y2="286"/>
</g>
</g>
</svg>
